<svg width="24" height="24" viewBox="0 0 24 24" fill="none" xmlns="http://www.w3.org/2000/svg">
<path d="M10.5488 14H12.4333C12.9856 14 13.4333 13.5523 13.4333 13V13V12.991C13.4333 12.727 13.3285 12.4738 13.1418 12.2871C12.9551 12.1004 12.7019 11.9955 12.4378 11.9955H11.4288C10.879 11.9955 10.4334 11.5498 10.4333 11V11C10.4333 10.4477 10.881 10 11.4333 10H13.1" stroke="#323232" stroke-width="1.5" stroke-linecap="round" stroke-linejoin="round"/>
<rect x="2.5" y="2.5" width="19" height="19" rx="5.84615" stroke="#323232" stroke-width="1.5" stroke-linecap="round" stroke-linejoin="round"/>
<path d="M15.6155 14H17.5C18.0523 14 18.5 13.5523 18.5 13V13V12.991C18.5 12.4412 18.0543 11.9955 17.5045 11.9955H16.4955C15.9457 11.9955 15.5 11.5498 15.5 11V11C15.5 10.4477 15.9477 10 16.5 10H18.1667" stroke="#323232" stroke-width="1.5" stroke-linecap="round" stroke-linejoin="round"/>
<path d="M8.16667 10H6.83333C6.47971 10 6.14057 10.1405 5.89052 10.3905C5.64048 10.6406 5.5 10.9797 5.5 11.3333V12.6667C5.5 13.0203 5.64048 13.3594 5.89052 13.6095C6.14057 13.8595 6.47971 14 6.83333 14H8.16667" stroke="#323232" stroke-width="1.5" stroke-linecap="round" stroke-linejoin="round"/>
</svg>
