<svg width="86" height="101" viewBox="0 0 86 101" fill="none" xmlns="http://www.w3.org/2000/svg">
<path d="M11.5009 88.875H0.375L0.375 99.8769H11.5009L11.5009 88.875Z" fill="#f4f4f4"/>
<path d="M48.415 88.875H37.2891V100.001H48.415V88.875Z" fill="#f4f4f4"/>
<path d="M85.0947 88.875H73.9688V99.8769H85.0947V88.875Z" fill="#f4f4f4"/>
<path d="M68.2151 18.5777L48.5403 18.5777L48.5403 14.4274C48.5403 6.47886 42.0612 0 34.1126 0L0 0L0.124318 79.7031H11.4883L11.4883 11.25L29.5795 11.25C34.3508 11.25 36.7933 13.6925 36.7933 18.4637L36.7933 79.5788H48.5299L48.5299 29.952L66.2589 29.952C71.3923 29.952 73.959 32.3945 73.959 37.4141V79.7132H85.4473V35.7065C85.4473 24.3425 79.7033 18.588 68.2151 18.588V18.5777Z" fill="#f4f4f4"/>
</svg>
