<svg width="24" height="24" viewBox="0 0 24 24" fill="none" xmlns="http://www.w3.org/2000/svg">
<path fill-rule="evenodd" clip-rule="evenodd" d="M12.25 10.417H10.417C9.404 10.417 8.584 9.59601 8.584 8.58401V8.58401C8.584 7.57101 9.405 6.75101 10.417 6.75101H12.25V10.417Z" stroke="#323232" stroke-width="1.5" stroke-linecap="round" stroke-linejoin="round"/>
<path fill-rule="evenodd" clip-rule="evenodd" d="M12.25 10.417H10.417C9.404 10.417 8.584 11.238 8.584 12.25V12.25C8.584 13.263 9.405 14.083 10.417 14.083H12.25V10.417Z" stroke="#323232" stroke-width="1.5" stroke-linecap="round" stroke-linejoin="round"/>
<path fill-rule="evenodd" clip-rule="evenodd" d="M12.25 14.083H10.417C9.404 14.083 8.584 14.904 8.584 15.916V15.916C8.584 16.929 9.405 17.749 10.417 17.749V17.749C11.43 17.749 12.25 16.928 12.25 15.916V14.083V14.083Z" stroke="#323232" stroke-width="1.5" stroke-linecap="round" stroke-linejoin="round"/>
<path d="M15.3791 10.9539C16.0949 11.6697 16.0949 12.8303 15.3791 13.5461C14.6633 14.262 13.5027 14.262 12.7869 13.5461C12.071 12.8303 12.071 11.6697 12.7869 10.9539C13.5027 10.2381 14.6633 10.2381 15.3791 10.9539" stroke="#323232" stroke-width="1.5" stroke-linecap="round" stroke-linejoin="round"/>
<path fill-rule="evenodd" clip-rule="evenodd" d="M14.083 10.417H12.25V6.75H14.083C15.096 6.75 15.916 7.571 15.916 8.583V8.583C15.917 9.596 15.096 10.417 14.083 10.417Z" stroke="#323232" stroke-width="1.5" stroke-linecap="round" stroke-linejoin="round"/>
<path fill-rule="evenodd" clip-rule="evenodd" d="M7.5 3H16.504C18.987 3 21 5.013 21 7.496V16.505C21 18.987 18.987 21 16.504 21H7.496C5.013 21 3 18.987 3 16.504V7.5C3 5.015 5.015 3 7.5 3V3Z" stroke="#323232" stroke-width="1.5" stroke-linecap="round" stroke-linejoin="round"/>
</svg>

