<svg width="24" height="24" viewBox="0 0 24 24" fill="none" xmlns="http://www.w3.org/2000/svg">
<path fill-rule="evenodd" clip-rule="evenodd" d="M19.0029 6.93789H12.5292C12.1979 6.93788 11.8881 6.77379 11.7019 6.49971L10.2963 4.43385C10.1101 4.16042 9.80074 3.99667 9.46994 3.99667H4.99708C4.46638 3.99667 3.95738 4.20727 3.58212 4.58254C3.20686 4.9578 2.99625 5.4668 2.99625 5.9975V18.0025C2.99625 18.5332 3.20686 19.0422 3.58212 19.4175C3.95738 19.7927 4.46638 20.0033 4.99708 20.0033H19.0029C19.5336 20.0033 20.0426 19.7927 20.4179 19.4175C20.7931 19.0422 21.0037 18.5332 21.0037 18.0025V8.93872C21.0037 7.83372 20.1079 6.93794 19.0029 6.93789V6.93789Z" stroke="#eff0f2" stroke-width="1.5" stroke-linecap="round" stroke-linejoin="round"/>
<path d="M13.0004 16.0017H15.0012" stroke="#eff0f2" stroke-width="1.5" stroke-linecap="round" stroke-linejoin="round"/>
<path d="M8.99875 10.9996L10.9996 13.0004L8.99875 15.0012" stroke="#eff0f2" stroke-width="1.5" stroke-linecap="round" stroke-linejoin="round"/>
</svg>
